<svg width="20" height="20" viewBox="0 0 20 20" fill="none" xmlns="http://www.w3.org/2000/svg">
<path fill-rule="evenodd" clip-rule="evenodd" d="M12.7279 12.7279C15.0711 10.3848 15.0711 6.58578 12.7279 4.24263C10.3848 1.89949 6.58579 1.89949 4.24264 4.24263C1.89949 6.58578 1.89949 10.3848 4.24264 12.7279C6.58579 15.0711 10.3848 15.0711 12.7279 12.7279ZM11.3137 11.3137C12.8758 9.75161 12.8758 7.21895 11.3137 5.65685C9.75161 4.09475 7.21895 4.09475 5.65685 5.65685C4.09476 7.21895 4.09476 9.75161 5.65685 11.3137C7.21895 12.8758 9.75161 12.8758 11.3137 11.3137Z" fill="white"/>
<rect x="11.3137" y="12.7279" width="2" height="3" transform="rotate(-45 11.3137 12.7279)" fill="white"/>
<circle cx="14.1421" cy="14.1421" r="1" transform="rotate(-45 14.1421 14.1421)" fill="white"/>
</svg>
